<svg id="visual" viewBox="0 0 960 540" width="960" height="540" xmlns="http://www.w3.org/2000/svg" xmlns:xlink="http://www.w3.org/1999/xlink" version="1.1"><rect x="0" y="0" width="960" height="540" fill="#b8a99a"></rect><path d="M0 377L17.8 378C35.7 379 71.3 381 106.8 375.8C142.3 370.7 177.7 358.3 213.2 359.7C248.7 361 284.3 376 320 378.5C355.7 381 391.3 371 426.8 362.8C462.3 354.7 497.7 348.3 533.2 343.2C568.7 338 604.3 334 640 339.2C675.7 344.3 711.3 358.7 746.8 364.3C782.3 370 817.7 367 853.2 366.3C888.7 365.7 924.3 367.3 942.2 368.2L960 369L960 541L942.2 541C924.3 541 888.7 541 853.2 541C817.7 541 782.3 541 746.8 541C711.3 541 675.7 541 640 541C604.3 541 568.7 541 533.2 541C497.7 541 462.3 541 426.8 541C391.3 541 355.7 541 320 541C284.3 541 248.7 541 213.2 541C177.7 541 142.3 541 106.8 541C71.3 541 35.7 541 17.8 541L0 541Z" fill="#faa500"></path><path d="M0 362L17.8 368.8C35.7 375.7 71.3 389.3 106.8 398.7C142.3 408 177.7 413 213.2 409.2C248.7 405.3 284.3 392.7 320 384.5C355.7 376.3 391.3 372.7 426.8 374.5C462.3 376.3 497.7 383.7 533.2 392.2C568.7 400.7 604.3 410.3 640 415.8C675.7 421.3 711.3 422.7 746.8 415.7C782.3 408.7 817.7 393.3 853.2 384C888.7 374.7 924.3 371.3 942.2 369.7L960 368L960 541L942.2 541C924.3 541 888.7 541 853.2 541C817.7 541 782.3 541 746.8 541C711.3 541 675.7 541 640 541C604.3 541 568.7 541 533.2 541C497.7 541 462.3 541 426.8 541C391.3 541 355.7 541 320 541C284.3 541 248.7 541 213.2 541C177.7 541 142.3 541 106.8 541C71.3 541 35.7 541 17.8 541L0 541Z" fill="#ce8c23"></path><path d="M0 416L17.8 416.8C35.7 417.7 71.3 419.3 106.8 425.2C142.3 431 177.7 441 213.2 442.2C248.7 443.3 284.3 435.7 320 434.2C355.7 432.7 391.3 437.3 426.8 435.3C462.3 433.3 497.7 424.7 533.2 418.5C568.7 412.3 604.3 408.7 640 414.3C675.7 420 711.3 435 746.8 442.7C782.3 450.3 817.7 450.7 853.2 446C888.7 441.3 924.3 431.7 942.2 426.8L960 422L960 541L942.2 541C924.3 541 888.7 541 853.2 541C817.7 541 782.3 541 746.8 541C711.3 541 675.7 541 640 541C604.3 541 568.7 541 533.2 541C497.7 541 462.3 541 426.8 541C391.3 541 355.7 541 320 541C284.3 541 248.7 541 213.2 541C177.7 541 142.3 541 106.8 541C71.3 541 35.7 541 17.8 541L0 541Z" fill="#a4732f"></path><path d="M0 478L17.8 475.2C35.7 472.3 71.3 466.7 106.8 462.7C142.3 458.7 177.7 456.3 213.2 456.7C248.7 457 284.3 460 320 460.2C355.7 460.3 391.3 457.7 426.8 456.2C462.3 454.7 497.7 454.3 533.2 454.2C568.7 454 604.3 454 640 451.3C675.7 448.7 711.3 443.3 746.8 443C782.3 442.7 817.7 447.3 853.2 448.2C888.7 449 924.3 446 942.2 444.5L960 443L960 541L942.2 541C924.3 541 888.7 541 853.2 541C817.7 541 782.3 541 746.8 541C711.3 541 675.7 541 640 541C604.3 541 568.7 541 533.2 541C497.7 541 462.3 541 426.8 541C391.3 541 355.7 541 320 541C284.3 541 248.7 541 213.2 541C177.7 541 142.3 541 106.8 541C71.3 541 35.7 541 17.8 541L0 541Z" fill="#7a5c35"></path><path d="M0 478L17.8 479.5C35.7 481 71.3 484 106.8 488.3C142.3 492.7 177.7 498.3 213.2 498.8C248.7 499.3 284.3 494.7 320 492C355.7 489.3 391.3 488.7 426.8 490.5C462.3 492.3 497.7 496.7 533.2 499.7C568.7 502.7 604.3 504.3 640 502.8C675.7 501.3 711.3 496.7 746.8 493.3C782.3 490 817.7 488 853.2 485.7C888.7 483.3 924.3 480.7 942.2 479.3L960 478L960 541L942.2 541C924.3 541 888.7 541 853.2 541C817.7 541 782.3 541 746.8 541C711.3 541 675.7 541 640 541C604.3 541 568.7 541 533.2 541C497.7 541 462.3 541 426.8 541C391.3 541 355.7 541 320 541C284.3 541 248.7 541 213.2 541C177.7 541 142.3 541 106.8 541C71.3 541 35.7 541 17.8 541L0 541Z" fill="#514538"></path></svg>