<svg id="visual" viewBox="0 0 960 540" width="960" height="540" xmlns="http://www.w3.org/2000/svg" xmlns:xlink="http://www.w3.org/1999/xlink" version="1.1"><path d="M0 60L32 57.3C64 54.7 128 49.3 192 53.8C256 58.3 320 72.7 384 80.8C448 89 512 91 576 91C640 91 704 89 768 85.3C832 81.7 896 76.3 928 73.7L960 71L960 0L928 0C896 0 832 0 768 0C704 0 640 0 576 0C512 0 448 0 384 0C320 0 256 0 192 0C128 0 64 0 32 0L0 0Z" fill="#b8a99a"></path><path d="M0 87L32 91.5C64 96 128 105 192 111.3C256 117.7 320 121.3 384 122.3C448 123.3 512 121.7 576 130.7C640 139.7 704 159.3 768 164.7C832 170 896 161 928 156.5L960 152L960 69L928 71.7C896 74.3 832 79.7 768 83.3C704 87 640 89 576 89C512 89 448 87 384 78.8C320 70.7 256 56.3 192 51.8C128 47.3 64 52.7 32 55.3L0 58Z" fill="#daa76a"></path><path d="M0 141L32 159C64 177 128 213 192 232.8C256 252.7 320 256.3 384 243.8C448 231.3 512 202.7 576 207.2C640 211.7 704 249.3 768 252C832 254.7 896 222.3 928 206.2L960 190L960 150L928 154.5C896 159 832 168 768 162.7C704 157.3 640 137.7 576 128.7C512 119.7 448 121.3 384 120.3C320 119.3 256 115.7 192 109.3C128 103 64 94 32 89.5L0 85Z" fill="#f5a631"></path><path d="M0 374L32 372.2C64 370.3 128 366.7 192 373.8C256 381 320 399 384 388.2C448 377.3 512 337.7 576 332.2C640 326.7 704 355.3 768 361.7C832 368 896 352 928 344L960 336L960 188L928 204.2C896 220.3 832 252.7 768 250C704 247.3 640 209.7 576 205.2C512 200.7 448 229.3 384 241.8C320 254.3 256 250.7 192 230.8C128 211 64 175 32 157L0 139Z" fill="#ffa500"></path><path d="M0 465L32 461.5C64 458 128 451 192 450.2C256 449.3 320 454.7 384 452C448 449.3 512 438.7 576 442.3C640 446 704 464 768 470.2C832 476.3 896 470.7 928 467.8L960 465L960 334L928 342C896 350 832 366 768 359.7C704 353.3 640 324.7 576 330.2C512 335.7 448 375.3 384 386.2C320 397 256 379 192 371.8C128 364.7 64 368.3 32 370.2L0 372Z" fill="#f5a631"></path><path d="M0 498L32 498.8C64 499.7 128 501.3 192 495.8C256 490.3 320 477.7 384 477.7C448 477.7 512 490.3 576 496.7C640 503 704 503 768 501.2C832 499.3 896 495.7 928 493.8L960 492L960 463L928 465.8C896 468.7 832 474.3 768 468.2C704 462 640 444 576 440.3C512 436.7 448 447.3 384 450C320 452.7 256 447.3 192 448.2C128 449 64 456 32 459.5L0 463Z" fill="#daa76a"></path><path d="M0 541L32 541C64 541 128 541 192 541C256 541 320 541 384 541C448 541 512 541 576 541C640 541 704 541 768 541C832 541 896 541 928 541L960 541L960 490L928 491.8C896 493.7 832 497.3 768 499.2C704 501 640 501 576 494.7C512 488.3 448 475.7 384 475.7C320 475.7 256 488.3 192 493.8C128 499.3 64 497.7 32 496.8L0 496Z" fill="#b8a99a"></path></svg>