<svg id="visual" viewBox="0 0 960 540" width="960" height="540" xmlns="http://www.w3.org/2000/svg" xmlns:xlink="http://www.w3.org/1999/xlink" version="1.1"><path d="M0 33L137 33L137 55L274 55L274 33L411 33L411 60L549 60L549 50L686 50L686 33L823 33L823 55L960 55L960 55L960 0L960 0L823 0L823 0L686 0L686 0L549 0L549 0L411 0L411 0L274 0L274 0L137 0L137 0L0 0Z" fill="#b8a99a"></path><path d="M0 60L137 60L137 98L274 98L274 82L411 82L411 93L549 93L549 98L686 98L686 77L823 77L823 82L960 82L960 98L960 53L960 53L823 53L823 31L686 31L686 48L549 48L549 58L411 58L411 31L274 31L274 53L137 53L137 31L0 31Z" fill="#daa76a"></path><path d="M0 120L137 120L137 152L274 152L274 131L411 131L411 168L549 168L549 152L686 152L686 152L823 152L823 152L960 152L960 158L960 96L960 80L823 80L823 75L686 75L686 96L549 96L549 91L411 91L411 80L274 80L274 96L137 96L137 58L0 58Z" fill="#f5a631"></path><path d="M0 158L137 158L137 190L274 190L274 185L411 185L411 233L549 233L549 206L686 206L686 201L823 201L823 217L960 217L960 217L960 156L960 150L823 150L823 150L686 150L686 150L549 150L549 166L411 166L411 129L274 129L274 150L137 150L137 118L0 118Z" fill="#ffa500"></path><path d="M0 330L137 330L137 347L274 347L274 341L411 341L411 384L549 384L549 330L686 330L686 336L823 336L823 320L960 320L960 325L960 215L960 215L823 215L823 199L686 199L686 204L549 204L549 231L411 231L411 183L274 183L274 188L137 188L137 156L0 156Z" fill="#f5a631"></path><path d="M0 422L137 422L137 465L274 465L274 433L411 433L411 465L549 465L549 487L686 487L686 449L823 449L823 476L960 476L960 455L960 323L960 318L823 318L823 334L686 334L686 328L549 328L549 382L411 382L411 339L274 339L274 345L137 345L137 328L0 328Z" fill="#daa76a"></path><path d="M0 541L137 541L137 541L274 541L274 541L411 541L411 541L549 541L549 541L686 541L686 541L823 541L823 541L960 541L960 541L960 453L960 474L823 474L823 447L686 447L686 485L549 485L549 463L411 463L411 431L274 431L274 463L137 463L137 420L0 420Z" fill="#b8a99a"></path></svg>